<?xml version="1.0" encoding="iso-8859-1"?>
<!-- Generator: Adobe Illustrator 19.0.0, SVG Export Plug-In . SVG Version: 6.00 Build 0)  -->
<svg version="1.1" id="Layer_1" xmlns="http://www.w3.org/2000/svg" xmlns:xlink="http://www.w3.org/1999/xlink" x="0px" y="0px"
	 viewBox="0 0 512 512" style="enable-background:new 0 0 512 512;" xml:space="preserve">
<g>
	<g>
		<path d="M509.637,249.983l-97.399-168.71c-12.252-21.221-35.08-34.404-59.573-34.404h-0.644V21.121v-0.13
			c0-10.544-9.222-18.763-19.737-17.495H179.7c-10.518-1.267-19.734,6.959-19.734,17.495v0.13V46.87h-0.631
			c-24.495,0-47.321,13.183-59.573,34.404L2.363,249.983c-4.865,8.425-1.978,19.212,6.452,24.078L92.46,322.34
			c6.424,3.708,14.218,2.913,19.714-1.411v170.079c0,9.734,7.892,17.626,17.626,17.626h252.4c9.734,0,17.626-7.892,17.626-17.626
			V320.928c5.498,4.323,13.29,5.121,19.714,1.411l83.645-48.279C511.609,269.197,514.504,258.412,509.637,249.983z M316.769,50.93
			v5.621l-28.098,24.838l-7.302-10.815L316.769,50.93z M266.073,38.747l-10.08,5.593l-10.08-5.593H266.073z M195.218,50.929
			l35.403,19.647l-7.296,10.812l-28.107-24.838V50.929z M417.181,282.998l-19.717-34.154c-8.982-15.56-32.889-9.154-32.889,8.813
			v215.724H147.425V257.657c0-17.963-23.904-24.375-32.889-8.813l-19.717,34.154l-53.113-30.657l88.585-153.443
			c10.962-18.988,29.914-16.778,40.631-16.778l44.109,38.98c0.014,0.013,0.029,0.022,0.043,0.034c7.97,7,20.301,5.413,26.238-3.383
			l14.686-21.762l14.694,21.764c5.955,8.823,18.332,10.371,26.281,3.344l44.096-38.978c10.719,0,29.673-2.219,40.641,16.777
			l88.585,153.443L417.181,282.998z"/>
	</g>
</g>
<g>
	<g>
		<path d="M343.83,195.131h-49.462c-9.734,0-17.626,7.892-17.626,17.626c0,9.734,7.892,17.626,17.626,17.626h49.462
			c9.734,0,17.626-7.892,17.626-17.626C361.456,203.022,353.564,195.131,343.83,195.131z"/>
	</g>
</g>
<g>
</g>
<g>
</g>
<g>
</g>
<g>
</g>
<g>
</g>
<g>
</g>
<g>
</g>
<g>
</g>
<g>
</g>
<g>
</g>
<g>
</g>
<g>
</g>
<g>
</g>
<g>
</g>
<g>
</g>
</svg>
