<?xml version="1.0" encoding="iso-8859-1"?>
<!-- Generator: Adobe Illustrator 17.1.0, SVG Export Plug-In . SVG Version: 6.00 Build 0)  -->
<!DOCTYPE svg PUBLIC "-//W3C//DTD SVG 1.1//EN" "http://www.w3.org/Graphics/SVG/1.1/DTD/svg11.dtd">
<svg version="1.1" id="Capa_1" xmlns="http://www.w3.org/2000/svg" xmlns:xlink="http://www.w3.org/1999/xlink" x="0px" y="0px"
	 viewBox="0 0 403.994 403.994" style="enable-background:new 0 0 403.994 403.994;" xml:space="preserve">
<path id="XMLID_2010_" d="M365.551,334c-1.5,3.335-4.78,5.312-8.214,5.312c-1.234,0-2.487-0.255-3.686-0.793l-7.47-3.358
	c-4.533-2.039-6.557-7.366-4.519-11.899c2.039-4.535,7.367-6.553,11.899-4.519l7.47,3.358
	C365.566,324.14,367.59,329.467,365.551,334z M107.171,82.532c-16.369,0-29.687,14.033-29.687,31.281c0,4.971,4.029,9,9,9
	s9-4.029,9-9c0-7.323,5.243-13.281,11.687-13.281c4.971,0,9-4.029,9-9S112.141,82.532,107.171,82.532z M351.886,268.727
	c1.062,0,2.142-0.189,3.192-0.589l7.658-2.907c4.646-1.764,6.984-6.961,5.22-11.608c-1.765-4.646-6.959-6.987-11.608-5.22
	l-7.658,2.907c-4.646,1.764-6.983,6.961-5.22,11.608C344.836,266.514,348.256,268.727,351.886,268.727z M53.457,301.053v26.382
	c0,14.547,11.834,26.382,26.381,26.382h103.415c4.971,0,9,4.029,9,9s-4.029,9-9,9H79.838c-24.472,0-44.381-19.909-44.381-44.382
	v-35.004c-0.005-0.125-0.008-0.251-0.008-0.378s0.002-0.253,0.008-0.378V150.904c-0.005-0.125-0.008-0.251-0.008-0.378
	s0.002-0.253,0.008-0.378V89.761c0-21.39,15.21-39.293,35.381-43.465V9c0-4.971,4.029-9,9-9h141.528c4.971,0,9,4.029,9,9v37.296
	c20.171,4.172,35.381,22.075,35.381,43.465v122.071c0,4.971-4.029,9-9,9c-4.971,0-9-4.029-9-9v-52.306H53.457v123.526h129.796
	c4.971,0,9,4.029,9,9s-4.029,9-9,9H53.457z M88.838,45.379h123.528V18H88.838V45.379z M53.457,141.526h194.29V89.761
	c0-14.547-11.834-26.382-26.381-26.382H79.838c-14.547,0-26.381,11.835-26.381,26.382V141.526z M77.486,185.908v70.763
	c0,4.971,4.029,9,9,9s9-4.029,9-9v-70.763c0-4.971-4.029-9-9-9S77.486,180.938,77.486,185.908z M303.719,288.849v70.767
	c0,24.471-19.909,44.379-44.38,44.379c-24.475,0-44.383-19.908-44.383-44.379v-35.198c-0.001-0.063-0.002-0.124-0.002-0.187
	s0.001-0.124,0.002-0.187v-35.195c0-24.472,19.908-44.381,44.379-44.381h0.004C283.81,244.468,303.719,264.377,303.719,288.849z
	 M285.719,288.849c0-14.547-11.834-26.381-26.38-26.381h-0.004c-14.545,0-26.379,11.834-26.379,26.381v26.382h26.381
	c4.971,0,9,4.029,9,9s-4.029,9-9,9h-26.381v26.385c0,14.545,11.834,26.379,26.379,26.379c14.55,0,26.384-11.834,26.384-26.379
	V288.849z M312.818,195.085c-4.531-2.038-9.86-0.016-11.899,4.519l-3.358,7.471c-2.038,4.534-0.015,9.861,4.519,11.899
	c1.198,0.538,2.451,0.793,3.686,0.793c3.434,0,6.714-1.977,8.214-5.312l3.358-7.471C319.375,202.45,317.351,197.123,312.818,195.085
	z"/>
<g>
</g>
<g>
</g>
<g>
</g>
<g>
</g>
<g>
</g>
<g>
</g>
<g>
</g>
<g>
</g>
<g>
</g>
<g>
</g>
<g>
</g>
<g>
</g>
<g>
</g>
<g>
</g>
<g>
</g>
</svg>
